<svg width="45" height="65" viewBox="0 0 45 65" fill="none" xmlns="http://www.w3.org/2000/svg">
<path d="M21.4398 20.8779L10.3965 31.9213H38.0049C40.0009 31.7369 43.9929 30.1441 43.9929 25.2483" stroke="#274143" stroke-width="1.06431"/>
<circle cx="24.7541" cy="17.5648" r="4.98952" stroke="#274143" stroke-width="1.06431"/>
<circle cx="24.7555" cy="17.5651" r="1.67652" stroke="#274143" stroke-width="1.06431"/>
<path fill-rule="evenodd" clip-rule="evenodd" d="M26.9631 13.1477C26.963 11.9279 25.9742 10.9391 24.7544 10.9391C23.5346 10.9391 22.5458 11.9279 22.5457 13.1477H21.4414C21.4414 11.318 22.9247 9.83473 24.7544 9.83473C26.5841 9.83473 28.0674 11.318 28.0674 13.1477H26.9631Z" fill="#274143"/>
<path fill-rule="evenodd" clip-rule="evenodd" d="M22.5467 21.9824C22.5467 21.9824 22.5467 21.9824 22.5467 21.9824C22.5467 23.2022 23.5355 24.1911 24.7554 24.1911C25.9752 24.1911 26.964 23.2022 26.964 21.9824C26.964 21.9824 26.964 21.9824 26.964 21.9824H28.0684C28.0684 21.9824 28.0684 21.9824 28.0684 21.9824C28.0684 23.8121 26.5851 25.2954 24.7554 25.2954C22.9256 25.2954 21.4423 23.8121 21.4423 21.9824C21.4423 21.9824 21.4423 21.9824 21.4423 21.9824H22.5467Z" fill="#274143"/>
<path fill-rule="evenodd" clip-rule="evenodd" d="M29.1719 19.7736C29.1724 19.7736 29.1728 19.7736 29.1733 19.7736C30.3931 19.7736 31.382 18.7847 31.382 17.5649C31.382 16.3451 30.3931 15.3562 29.1733 15.3562C29.1728 15.3562 29.1724 15.3562 29.1719 15.3562L29.1719 14.2519C29.1724 14.2519 29.1728 14.2519 29.1733 14.2519C31.003 14.2519 32.4863 15.7352 32.4863 17.5649C32.4863 19.3946 31.003 20.8779 29.1733 20.8779C29.1728 20.8779 29.1724 20.8779 29.1719 20.8779L29.1719 19.7736Z" fill="#274143"/>
<path fill-rule="evenodd" clip-rule="evenodd" d="M20.3349 15.3562C19.1158 15.357 18.1278 16.3456 18.1278 17.5649C18.1278 18.7842 19.1158 19.7727 20.3349 19.7735L20.3349 20.8779C18.5059 20.877 17.0234 19.3941 17.0234 17.5649C17.0234 15.7357 18.5059 14.2527 20.3349 14.2519L20.3349 15.3562Z" fill="#274143"/>
<path d="M29.168 14.252C30.8245 8.73035 35.2418 3.20867 42.0347 1C42.4942 2.83072 44.6287 19.2215 29.168 20.3259" stroke="#274143" stroke-width="1.06431"/>
<path fill-rule="evenodd" clip-rule="evenodd" d="M31.377 9.05738C31.8157 9.96106 32.7422 10.584 33.8142 10.584C35.3096 10.584 36.5219 9.37177 36.5219 7.87635C36.5219 6.78569 35.877 5.84565 34.9478 5.41667L34.0855 6.29585C34.8418 6.42475 35.4175 7.08332 35.4175 7.87635C35.4175 8.76186 34.6997 9.47971 33.8142 9.47971C33.0319 9.47971 32.3804 8.91943 32.2392 8.17825L31.377 9.05738Z" fill="#274143"/>
<path fill-rule="evenodd" clip-rule="evenodd" d="M39.9317 14.6698C39.4277 13.8012 38.4581 13.2482 37.3892 13.3269C35.8978 13.4368 34.7779 14.7349 34.8878 16.2263C34.9679 17.3138 35.6798 18.2037 36.6377 18.5634L37.4329 17.6234C36.6696 17.5501 36.0474 16.9358 35.9891 16.1451C35.9241 15.262 36.5872 14.4934 37.4703 14.4283C38.2503 14.3708 38.9409 14.8814 39.1365 15.6098L39.9317 14.6698Z" fill="#274143"/>
<path d="M21.4398 44.0435L10.3965 33.0001H38.0049C40.0009 33.1845 43.9929 34.7773 43.9929 39.6731" stroke="#274143" stroke-width="1.06431"/>
<circle cx="5.52168" cy="5.52168" r="4.98952" transform="matrix(1 0 0 -1 19.2324 52.8782)" stroke="#274143" stroke-width="1.06431"/>
<circle cx="2.20867" cy="2.20867" r="1.67652" transform="matrix(1 0 0 -1 22.5469 49.5649)" stroke="#274143" stroke-width="1.06431"/>
<path fill-rule="evenodd" clip-rule="evenodd" d="M26.9631 51.7737C26.963 52.9935 25.9742 53.9823 24.7544 53.9823C23.5346 53.9823 22.5458 52.9935 22.5457 51.7737H21.4414C21.4414 53.6034 22.9247 55.0867 24.7544 55.0867C26.5841 55.0867 28.0674 53.6034 28.0674 51.7737H26.9631Z" fill="#274143"/>
<path fill-rule="evenodd" clip-rule="evenodd" d="M22.5467 42.939C22.5467 42.939 22.5467 42.939 22.5467 42.939C22.5467 41.7192 23.5355 40.7303 24.7554 40.7303C25.9752 40.7303 26.964 41.7192 26.964 42.939C26.964 42.939 26.964 42.939 26.964 42.939H28.0684C28.0684 42.939 28.0684 42.939 28.0684 42.939C28.0684 41.1093 26.5851 39.626 24.7554 39.626C22.9256 39.626 21.4423 41.1093 21.4423 42.939C21.4423 42.939 21.4423 42.939 21.4423 42.939H22.5467Z" fill="#274143"/>
<path fill-rule="evenodd" clip-rule="evenodd" d="M29.1719 45.1478C29.1724 45.1478 29.1728 45.1478 29.1733 45.1478C30.3931 45.1478 31.382 46.1367 31.382 47.3565C31.382 48.5763 30.3931 49.5651 29.1733 49.5651C29.1728 49.5651 29.1724 49.5651 29.1719 49.5651L29.1719 50.6695C29.1724 50.6695 29.1728 50.6695 29.1733 50.6695C31.003 50.6695 32.4863 49.1862 32.4863 47.3565C32.4863 45.5267 31.003 44.0435 29.1733 44.0435C29.1728 44.0435 29.1724 44.0435 29.1719 44.0435L29.1719 45.1478Z" fill="#274143"/>
<path fill-rule="evenodd" clip-rule="evenodd" d="M20.3349 49.5652C19.1158 49.5644 18.1278 48.5758 18.1278 47.3565C18.1278 46.1372 19.1158 45.1487 20.3349 45.1479L20.3349 44.0435C18.5059 44.0444 17.0234 45.5273 17.0234 47.3565C17.0234 49.1857 18.5059 50.6687 20.3349 50.6695L20.3349 49.5652Z" fill="#274143"/>
<path d="M29.168 50.6694C30.8245 56.191 35.2418 61.7127 42.0347 63.9214C42.4942 62.0907 44.6287 45.6998 29.168 44.5955" stroke="#274143" stroke-width="1.06431"/>
<path fill-rule="evenodd" clip-rule="evenodd" d="M31.377 55.864C31.8157 54.9603 32.7422 54.3373 33.8142 54.3373C35.3096 54.3373 36.5219 55.5496 36.5219 57.045C36.5219 58.1357 35.877 59.0757 34.9478 59.5047L34.0855 58.6255C34.8418 58.4966 35.4175 57.8381 35.4175 57.045C35.4175 56.1595 34.6997 55.4417 33.8142 55.4417C33.0319 55.4417 32.3804 56.002 32.2392 56.7431L31.377 55.864Z" fill="#274143"/>
<path fill-rule="evenodd" clip-rule="evenodd" d="M39.9317 50.2516C39.4277 51.1202 38.4581 51.6732 37.3892 51.5944C35.8978 51.4846 34.7779 50.1865 34.8878 48.6951C34.9679 47.6076 35.6798 46.7177 36.6377 46.358L37.4329 47.298C36.6696 47.3713 36.0474 47.9856 35.9891 48.7763C35.9241 49.6594 36.5872 50.428 37.4703 50.4931C38.2503 50.5506 38.9409 50.04 39.1365 49.3116L39.9317 50.2516Z" fill="#274143"/>
<circle cx="2.5" cy="2.5" r="2.5" transform="matrix(-1 0 0 1 5.99219 30)" fill="#274143"/>
</svg>
