<svg width="1383" height="77" viewBox="0 0 1383 77" fill="none" xmlns="http://www.w3.org/2000/svg">
<path d="M20.9688 20.9689L26.9975 26.9976" stroke="#274143" stroke-width="1.06431"/>
<path d="M10.0586 10.0598L16.0873 16.0885" stroke="#274143" stroke-width="1.06431"/>
<path d="M20.9688 16.0885L26.9975 10.0598" stroke="#274143" stroke-width="1.06431"/>
<path d="M10.0586 26.9973L16.0873 20.9686" stroke="#274143" stroke-width="1.06431"/>
<path fill-rule="evenodd" clip-rule="evenodd" d="M9.33554 28.007L9.3452 27.4901C9.40821 24.1185 10.3502 22.0768 11.6184 20.9338C12.8832 19.7937 14.3885 19.625 15.4097 19.8337L15.1885 20.9156C14.4601 20.7668 13.3258 20.8815 12.3578 21.7541C11.46 22.5633 10.6319 24.0919 10.4734 26.8691L9.33554 28.007Z" fill="#274143"/>
<path fill-rule="evenodd" clip-rule="evenodd" d="M9.33848 28.0075L9.85509 27.9978C13.2267 27.9348 15.2684 26.9929 16.4115 25.7246C17.5515 24.4598 17.7203 22.9545 17.5116 21.9334L16.4296 22.1545C16.5785 22.8829 16.4637 24.0172 15.5912 24.9853C14.782 25.883 13.2534 26.7111 10.4763 26.8696L9.33848 28.0075Z" fill="#274143"/>
<path fill-rule="evenodd" clip-rule="evenodd" d="M28.0092 9.33773L27.4926 9.34738C24.1209 9.4104 22.0793 10.3524 20.9362 11.6206C19.7962 12.8854 19.6274 14.3907 19.8361 15.4118L20.9181 15.1907C20.7692 14.4623 20.8839 13.328 21.7565 12.3599C22.5657 11.4622 24.0942 10.6341 26.8713 10.4756L28.0092 9.33773Z" fill="#274143"/>
<path fill-rule="evenodd" clip-rule="evenodd" d="M28.0085 9.33731L27.9989 9.85369C27.9359 13.2253 26.9939 15.267 25.7257 16.4101C24.4609 17.5501 22.9556 17.7189 21.9344 17.5102L22.1555 16.4282C22.8839 16.5771 24.0182 16.4623 24.9863 15.5898C25.884 14.7806 26.7121 13.2521 26.8707 10.4752L28.0085 9.33731Z" fill="#274143"/>
<path fill-rule="evenodd" clip-rule="evenodd" d="M28.0079 28.0068L27.4899 27.9971C24.1183 27.9341 22.0766 26.9922 20.9335 25.7239C19.7935 24.4591 19.6247 22.9538 19.8334 21.9327L20.9154 22.1538C20.7665 22.8822 20.8813 24.0165 21.7538 24.9846C22.5632 25.8825 24.0921 26.7107 26.8701 26.869L28.0079 28.0068Z" fill="#274143"/>
<path fill-rule="evenodd" clip-rule="evenodd" d="M28.0066 28.0064L27.9969 27.4901C27.9339 24.1184 26.9919 22.0768 25.7237 20.9337C24.4589 19.7937 22.9536 19.6249 21.9325 19.8336L22.1536 20.9156C22.882 20.7667 24.0163 20.8814 24.9844 21.754C25.8821 22.5632 26.7101 24.0916 26.8687 26.8686L28.0066 28.0064Z" fill="#274143"/>
<path fill-rule="evenodd" clip-rule="evenodd" d="M9.33346 9.33775L9.34311 9.85448C9.40613 13.2261 10.3481 15.2678 11.6163 16.4109C12.8811 17.5509 14.3864 17.7197 15.4076 17.511L15.1864 16.429C14.4581 16.5779 13.3238 16.4631 12.3557 15.5906C11.4579 14.7814 10.6298 13.2528 10.4713 10.4756L9.33346 9.33775Z" fill="#274143"/>
<path fill-rule="evenodd" clip-rule="evenodd" d="M9.33585 9.33736L9.85383 9.34704C13.2255 9.41006 15.2671 10.352 16.4102 11.6202C17.5502 12.885 17.719 14.3904 17.5103 15.4115L16.4283 15.1904C16.5772 14.462 16.4625 13.3277 15.5899 12.3596C14.7806 11.4617 13.2517 10.6335 10.4736 10.4751L9.33585 9.33736Z" fill="#274143"/>
<circle cx="4.05994" cy="4.05994" r="3.52778" transform="matrix(-0.707107 0.707107 0.707107 0.707107 18.6719 12.9313)" stroke="#274143" stroke-width="1.06431"/>
<path d="M75.123 38.5833H34.9454C29.4465 38.2286 18.4486 34.4325 18.4486 22.0865" stroke="#274143" stroke-width="1.06431"/>
<path d="M20.9688 55.9324L26.9975 49.9037" stroke="#274143" stroke-width="1.06431"/>
<path d="M10.0586 66.8416L16.0873 60.8129" stroke="#274143" stroke-width="1.06431"/>
<path d="M20.9688 60.8129L26.9975 66.8416" stroke="#274143" stroke-width="1.06431"/>
<path d="M10.0586 49.9037L16.0873 55.9324" stroke="#274143" stroke-width="1.06431"/>
<path fill-rule="evenodd" clip-rule="evenodd" d="M9.33719 48.8951L9.34684 49.4114C9.40985 52.7831 10.3518 54.8247 11.62 55.9678C12.8848 57.1078 14.3901 57.2766 15.4113 57.0679L15.1902 55.9859C14.4618 56.1348 13.3275 56.0201 12.3594 55.1475C11.4617 54.3383 10.6336 52.8099 10.475 50.0329L9.33719 48.8951Z" fill="#274143"/>
<path fill-rule="evenodd" clip-rule="evenodd" d="M9.33848 48.8943L9.85509 48.904C13.2267 48.967 15.2684 49.9089 16.4115 51.1772C17.5515 52.442 17.7203 53.9473 17.5116 54.9684L16.4296 54.7473C16.5785 54.0189 16.4637 52.8846 15.5912 51.9165C14.782 51.0188 13.2534 50.1907 10.4763 50.0322L9.33848 48.8943Z" fill="#274143"/>
<path fill-rule="evenodd" clip-rule="evenodd" d="M28.0015 67.5641L27.4849 67.5544C24.1133 67.4914 22.0716 66.5494 20.9285 65.2812C19.7885 64.0164 19.6197 62.5111 19.8284 61.4899L20.9104 61.7111C20.7615 62.4395 20.8762 63.5738 21.7488 64.5418C22.558 65.4396 24.0866 66.2677 26.8637 66.4262L28.0015 67.5641Z" fill="#274143"/>
<path fill-rule="evenodd" clip-rule="evenodd" d="M28.0007 67.5641L27.9911 67.0477C27.928 63.676 26.9861 61.6344 25.7179 60.4913C24.4531 59.3513 22.9477 59.1825 21.9266 59.3912L22.1477 60.4732C22.8761 60.3243 24.0104 60.439 24.9785 61.3116C25.8762 62.1208 26.7043 63.6492 26.8629 66.4262L28.0007 67.5641Z" fill="#274143"/>
<path fill-rule="evenodd" clip-rule="evenodd" d="M28.0058 48.8947L27.4882 48.9043C24.1165 48.9674 22.0749 49.9093 20.9318 51.1775C19.7918 52.4423 19.623 53.9477 19.8317 54.9688L20.9136 54.7477C20.7648 54.0193 20.8795 52.885 21.7521 51.9169C22.5614 51.019 24.0902 50.1909 26.868 50.0325L28.0058 48.8947Z" fill="#274143"/>
<path fill-rule="evenodd" clip-rule="evenodd" d="M28.0046 48.8951L27.995 49.4114C27.9319 52.7831 26.99 54.8247 25.7218 55.9678C24.457 57.1078 22.9517 57.2766 21.9305 57.0679L22.1516 55.9859C22.88 56.1348 24.0143 56.0201 24.9824 55.1475C25.8801 54.3383 26.7082 52.8099 26.8668 50.0329L28.0046 48.8951Z" fill="#274143"/>
<path fill-rule="evenodd" clip-rule="evenodd" d="M9.33346 67.564L9.34311 67.0473C9.40613 63.6757 10.3481 61.634 11.6163 60.4909C12.8811 59.3509 14.3864 59.1821 15.4076 59.3908L15.1864 60.4728C14.4581 60.3239 13.3238 60.4387 12.3557 61.3112C11.4579 62.1204 10.6298 63.649 10.4713 66.4262L9.33346 67.564Z" fill="#274143"/>
<path fill-rule="evenodd" clip-rule="evenodd" d="M9.33653 67.5644L9.85314 67.5548C13.2248 67.4918 15.2664 66.5498 16.4095 65.2816C17.5495 64.0168 17.7183 62.5115 17.5096 61.4903L16.4276 61.7115C16.5765 62.4398 16.4618 63.5741 15.5892 64.5422C14.78 65.44 13.2515 66.268 10.4744 66.4266L9.33653 67.5644Z" fill="#274143"/>
<circle cx="18.6719" cy="58.2284" r="3.52778" transform="rotate(-135 18.6719 58.2284)" stroke="#274143" stroke-width="1.06431"/>
<path d="M75.123 38.3173H34.9454C29.4465 38.672 18.4486 42.4681 18.4486 54.814" stroke="#274143" stroke-width="1.06431"/>
<path d="M1361.15 20.9689L1355.13 26.9976" stroke="#274143" stroke-width="1.06431"/>
<path d="M1372.06 10.0598L1366.04 16.0885" stroke="#274143" stroke-width="1.06431"/>
<path d="M1361.15 16.0885L1355.13 10.0598" stroke="#274143" stroke-width="1.06431"/>
<path d="M1372.06 26.9973L1366.04 20.9686" stroke="#274143" stroke-width="1.06431"/>
<path fill-rule="evenodd" clip-rule="evenodd" d="M1372.79 28.0072L1372.78 27.4903C1372.71 24.1187 1371.77 22.077 1370.5 20.9339C1369.24 19.7939 1367.73 19.6251 1366.71 19.8338L1366.93 20.9158C1367.66 20.7669 1368.8 20.8817 1369.77 21.7542C1370.66 22.5635 1371.49 24.092 1371.65 26.8693L1372.79 28.0072Z" fill="#274143"/>
<path fill-rule="evenodd" clip-rule="evenodd" d="M1372.78 28.0075L1372.27 27.9978C1368.9 27.9348 1366.85 26.9929 1365.71 25.7246C1364.57 24.4598 1364.4 22.9545 1364.61 21.9334L1365.69 22.1545C1365.54 22.8829 1365.66 24.0172 1366.53 24.9853C1367.34 25.883 1368.87 26.7111 1371.65 26.8696L1372.78 28.0075Z" fill="#274143"/>
<path fill-rule="evenodd" clip-rule="evenodd" d="M1354.11 9.33773L1354.63 9.34738C1358 9.4104 1360.04 10.3524 1361.19 11.6206C1362.33 12.8854 1362.5 14.3907 1362.29 15.4118L1361.2 15.1907C1361.35 14.4623 1361.24 13.328 1360.37 12.3599C1359.56 11.4622 1358.03 10.6341 1355.25 10.4756L1354.11 9.33773Z" fill="#274143"/>
<path fill-rule="evenodd" clip-rule="evenodd" d="M1354.11 9.33731L1354.12 9.85369C1354.19 13.2253 1355.13 15.267 1356.4 16.4101C1357.66 17.5501 1359.17 17.7189 1360.19 17.5102L1359.97 16.4282C1359.24 16.5771 1358.1 16.4623 1357.14 15.5898C1356.24 14.7806 1355.41 13.2521 1355.25 10.4752L1354.11 9.33731Z" fill="#274143"/>
<path fill-rule="evenodd" clip-rule="evenodd" d="M1354.12 28.0068L1354.63 27.9971C1358 27.9341 1360.05 26.9922 1361.19 25.7239C1362.33 24.4591 1362.5 22.9538 1362.29 21.9327L1361.21 22.1538C1361.36 22.8822 1361.24 24.0165 1360.37 24.9846C1359.56 25.8825 1358.03 26.7107 1355.25 26.869L1354.12 28.0068Z" fill="#274143"/>
<path fill-rule="evenodd" clip-rule="evenodd" d="M1354.12 28.0064L1354.13 27.4901C1354.19 24.1184 1355.13 22.0768 1356.4 20.9337C1357.66 19.7937 1359.17 19.6249 1360.19 19.8336L1359.97 20.9156C1359.24 20.7667 1358.11 20.8814 1357.14 21.754C1356.24 22.5632 1355.41 24.0916 1355.25 26.8686L1354.12 28.0064Z" fill="#274143"/>
<path fill-rule="evenodd" clip-rule="evenodd" d="M1372.79 9.33775L1372.78 9.85448C1372.72 13.2261 1371.77 15.2678 1370.51 16.4109C1369.24 17.5509 1367.74 17.7197 1366.72 17.511L1366.94 16.429C1367.66 16.5779 1368.8 16.4631 1369.77 15.5906C1370.67 14.7814 1371.49 13.2528 1371.65 10.4756L1372.79 9.33775Z" fill="#274143"/>
<path fill-rule="evenodd" clip-rule="evenodd" d="M1372.79 9.33736L1372.27 9.34704C1368.9 9.41006 1366.86 10.352 1365.71 11.6202C1364.57 12.885 1364.4 14.3904 1364.61 15.4115L1365.69 15.1904C1365.55 14.462 1365.66 13.3277 1366.53 12.3596C1367.34 11.4617 1368.87 10.6335 1371.65 10.4751L1372.79 9.33736Z" fill="#274143"/>
<circle cx="1363.45" cy="18.673" r="3.52778" transform="rotate(45 1363.45 18.673)" stroke="#274143" stroke-width="1.06431"/>
<path d="M1307 38.5833H1347.18C1352.68 38.2286 1363.67 34.4325 1363.67 22.0865" stroke="#274143" stroke-width="1.06431"/>
<path d="M1361.15 55.9324L1355.12 49.9037" stroke="#274143" stroke-width="1.06431"/>
<path d="M1372.06 66.8416L1366.03 60.8129" stroke="#274143" stroke-width="1.06431"/>
<path d="M1361.15 60.8129L1355.12 66.8416" stroke="#274143" stroke-width="1.06431"/>
<path d="M1372.06 49.9037L1366.03 55.9324" stroke="#274143" stroke-width="1.06431"/>
<path fill-rule="evenodd" clip-rule="evenodd" d="M1372.78 48.8951L1372.77 49.4114C1372.71 52.7831 1371.77 54.8247 1370.5 55.9678C1369.24 57.1078 1367.73 57.2766 1366.71 57.0679L1366.93 55.9859C1367.66 56.1348 1368.79 56.0201 1369.76 55.1475C1370.66 54.3383 1371.49 52.8099 1371.65 50.0329L1372.78 48.8951Z" fill="#274143"/>
<path fill-rule="evenodd" clip-rule="evenodd" d="M1372.78 48.8943L1372.27 48.904C1368.89 48.967 1366.85 49.9089 1365.71 51.1772C1364.57 52.442 1364.4 53.9473 1364.61 54.9684L1365.69 54.7473C1365.54 54.0189 1365.66 52.8846 1366.53 51.9165C1367.34 51.0188 1368.87 50.1907 1371.64 50.0322L1372.78 48.8943Z" fill="#274143"/>
<path fill-rule="evenodd" clip-rule="evenodd" d="M1354.12 67.564L1354.64 67.5544C1358.01 67.4914 1360.05 66.5494 1361.19 65.2812C1362.33 64.0164 1362.5 62.5111 1362.29 61.4899L1361.21 61.7111C1361.36 62.4394 1361.25 63.5737 1360.37 64.5418C1359.56 65.4396 1358.03 66.2677 1355.26 66.4262L1354.12 67.564Z" fill="#274143"/>
<path fill-rule="evenodd" clip-rule="evenodd" d="M1354.12 67.5641L1354.13 67.0477C1354.19 63.676 1355.14 61.6344 1356.4 60.4913C1357.67 59.3513 1359.17 59.1825 1360.19 59.3912L1359.97 60.4732C1359.24 60.3243 1358.11 60.439 1357.14 61.3116C1356.24 62.1208 1355.42 63.6492 1355.26 66.4262L1354.12 67.5641Z" fill="#274143"/>
<path fill-rule="evenodd" clip-rule="evenodd" d="M1354.12 48.8947L1354.63 48.9043C1358 48.9674 1360.05 49.9093 1361.19 51.1775C1362.33 52.4423 1362.5 53.9477 1362.29 54.9688L1361.21 54.7477C1361.36 54.0193 1361.24 52.885 1360.37 51.9169C1359.56 51.019 1358.03 50.1909 1355.25 50.0325L1354.12 48.8947Z" fill="#274143"/>
<path fill-rule="evenodd" clip-rule="evenodd" d="M1354.12 48.8951L1354.13 49.4114C1354.19 52.7831 1355.13 54.8247 1356.4 55.9678C1357.66 57.1078 1359.17 57.2766 1360.19 57.0679L1359.97 55.9859C1359.24 56.1348 1358.11 56.0201 1357.14 55.1475C1356.24 54.3383 1355.41 52.8099 1355.25 50.0329L1354.12 48.8951Z" fill="#274143"/>
<path fill-rule="evenodd" clip-rule="evenodd" d="M1372.79 67.564L1372.78 67.0473C1372.71 63.6757 1371.77 61.634 1370.5 60.4909C1369.24 59.3509 1367.73 59.1821 1366.71 59.3908L1366.93 60.4728C1367.66 60.3239 1368.8 60.4387 1369.77 61.3112C1370.66 62.1204 1371.49 63.649 1371.65 66.4262L1372.79 67.564Z" fill="#274143"/>
<path fill-rule="evenodd" clip-rule="evenodd" d="M1372.78 67.5644L1372.27 67.5548C1368.9 67.4918 1366.85 66.5498 1365.71 65.2816C1364.57 64.0168 1364.4 62.5115 1364.61 61.4903L1365.69 61.7115C1365.54 62.4398 1365.66 63.5741 1366.53 64.5422C1367.34 65.44 1368.87 66.268 1371.65 66.4266L1372.78 67.5644Z" fill="#274143"/>
<circle cx="4.05994" cy="4.05994" r="3.52778" transform="matrix(0.707107 -0.707107 -0.707107 -0.707107 1363.45 63.97)" stroke="#274143" stroke-width="1.06431"/>
<path d="M1307 38.3173H1347.18C1352.68 38.672 1363.67 42.4681 1363.67 54.814" stroke="#274143" stroke-width="1.06431"/>
<path d="M75 38.0007L1307 38.0008" stroke="#274143"/>
<rect x="656.002" y="3.00073" width="69" height="68" fill="#FFFCFC"/>
<path fill-rule="evenodd" clip-rule="evenodd" d="M724.752 38.0697L724.448 37.7769C718.06 31.6233 712.651 29.7105 708.431 29.9295C704.215 30.1483 701.299 32.4896 699.9 34.6079L700.821 35.2166C702.056 33.3476 704.671 31.2304 708.488 31.0324C712.192 30.8401 717.137 32.4509 723.152 38.0697L724.752 38.0697Z" fill="#274143"/>
<path fill-rule="evenodd" clip-rule="evenodd" d="M724.75 38.0695L724.445 38.363C718.058 44.5166 712.649 46.4294 708.428 46.2104C704.212 45.9916 701.296 43.6503 699.897 41.532L700.818 40.9233C702.053 42.7923 704.668 44.9095 708.485 45.1075C712.19 45.2998 717.135 43.6888 723.15 38.0695L724.75 38.0695Z" fill="#274143"/>
<path fill-rule="evenodd" clip-rule="evenodd" d="M656.762 38.0691L657.066 37.7763C663.453 31.6226 668.862 29.7099 673.083 29.9289C677.299 30.1477 680.215 32.489 681.614 34.6073L680.693 35.216C679.458 33.347 676.843 31.2298 673.026 31.0317C669.321 30.8395 664.376 32.4503 658.361 38.0691L656.762 38.0691Z" fill="#274143"/>
<path fill-rule="evenodd" clip-rule="evenodd" d="M656.762 38.0696L657.066 38.363C663.454 44.5167 668.863 46.4295 673.084 46.2104C677.3 45.9917 680.215 43.6503 681.615 41.532L680.693 40.9234C679.459 42.7923 676.843 44.9095 673.026 45.1076C669.322 45.2998 664.377 43.6889 658.361 38.0696L656.762 38.0696Z" fill="#274143"/>
<path fill-rule="evenodd" clip-rule="evenodd" d="M690.755 72.0644L691.049 71.76C697.202 65.3719 699.115 59.9627 698.896 55.7418C698.677 51.5255 696.336 48.6095 694.217 47.2101L693.609 48.1315C695.478 49.3662 697.595 51.9816 697.793 55.799C697.985 59.5037 696.374 64.449 690.755 70.4645L690.755 72.0644Z" fill="#274143"/>
<path fill-rule="evenodd" clip-rule="evenodd" d="M690.743 72.065L690.449 71.7606C684.296 65.3726 682.384 59.9633 682.603 55.7424C682.821 51.5261 685.162 48.6101 687.281 47.2107L687.889 48.1321C686.021 49.3668 683.903 51.9822 683.705 55.7996C683.513 59.5044 685.124 64.4496 690.743 70.4651L690.743 72.065Z" fill="#274143"/>
<path fill-rule="evenodd" clip-rule="evenodd" d="M690.755 4.07465L691.049 4.37901C697.202 10.7671 699.115 16.1763 698.896 20.3972C698.677 24.6136 696.336 27.5296 694.217 28.9289L693.609 28.0075C695.478 26.7729 697.595 24.1575 697.793 20.34C697.985 16.6353 696.374 11.69 690.755 5.6745V4.07465Z" fill="#274143"/>
<path fill-rule="evenodd" clip-rule="evenodd" d="M690.739 4.07422L690.446 4.37859C684.292 10.7667 682.38 16.1759 682.599 20.3968C682.817 24.6131 685.159 27.5291 687.277 28.9285L687.885 28.0071C686.017 26.7725 683.9 24.157 683.701 20.3396C683.509 16.6349 685.12 11.6896 690.739 5.67408V4.07422Z" fill="#274143"/>
<path d="M701.091 38.0709C701.091 43.7775 696.465 48.4036 690.759 48.4036C685.053 48.4036 680.427 43.7775 680.427 38.0709C680.427 32.3642 685.053 27.7381 690.759 27.7381C696.465 27.7381 701.091 32.3642 701.091 38.0709Z" stroke="#274143" stroke-width="1.06431"/>
<path d="M696.947 37.9003C696.947 41.2392 694.24 43.9459 690.901 43.9459C687.563 43.9459 684.856 41.2392 684.856 37.9003C684.856 34.5614 687.563 31.8548 690.901 31.8548C694.24 31.8548 696.947 34.5614 696.947 37.9003Z" fill="#274143" stroke="#274143" stroke-width="1.06431"/>
</svg>
