<svg width="138" height="65" viewBox="0 0 138 65" fill="none" xmlns="http://www.w3.org/2000/svg">
<path d="M9.86554 36.9083C16.195 26.9653 28.4665 32.3719 33.2642 35.3755C26.7556 32.242 20.3162 28.5619 12.716 36.5976C12.6957 36.6191 12.6995 36.6554 12.7237 36.6723C23.5396 44.2524 30.0932 38.0494 32.9317 35.7641C32.9784 35.7265 33.0148 35.78 32.9711 35.8209C23.6092 44.5902 13.4039 40.7607 9.86977 36.9672C9.8548 36.9511 9.85374 36.9269 9.86554 36.9083Z" fill="#DDCEB8" stroke="#DDCEB8" stroke-width="0.485035"/>
<path d="M84.9791 10.9891C84.9791 11.2922 84.8275 11.4817 84.5244 11.5575C83.9686 11.6838 83.4507 11.7974 82.9707 11.8985C82.4908 11.9743 81.9729 12.1259 81.4171 12.3532C80.154 12.909 79.0425 13.6921 78.0825 14.7026C77.1478 15.6878 76.3015 16.7867 75.5436 17.9993C74.811 19.2119 74.1669 20.475 73.6111 21.7886C73.0806 23.1023 72.588 24.3654 72.1332 25.578C71.6785 26.7906 71.2238 28.1295 70.7691 29.5947C70.3144 31.0346 69.8217 32.4872 69.2912 33.9524C68.786 35.3924 68.205 36.7818 67.5482 38.1207C66.9166 39.4596 66.1714 40.6216 65.3124 41.6069C65.2367 41.6826 65.1356 41.7332 65.0093 41.7584C64.9082 41.7837 64.7946 41.7963 64.6683 41.7963C64.4409 41.7963 64.2893 41.6953 64.2135 41.4932C63.8346 40.5332 63.5441 39.4848 63.342 38.348C63.1652 37.186 63.0136 36.0871 62.8873 35.0513C62.5083 31.7672 62.1926 28.4958 61.9399 25.2369C61.7126 21.9529 61.2958 18.694 60.6895 15.4605C59.8053 17.6835 58.9843 19.9066 58.2264 22.1297C57.4685 24.3528 56.6601 26.5758 55.8012 28.7989C55.1949 30.3652 54.5255 31.8935 53.7929 33.384C53.0855 34.8745 52.214 36.2892 51.1782 37.6281C50.6477 38.3101 50.0541 38.9417 49.3972 39.5227C48.7404 40.1038 48.0331 40.609 47.2752 41.0385C46.5174 41.4679 45.7216 41.7963 44.8879 42.0237C44.0543 42.2763 43.1954 42.4026 42.3112 42.4026C42.1849 42.4026 42.0838 42.3395 42.008 42.2132C41.907 42.0868 41.8565 41.9605 41.8565 41.8342C41.8565 41.5311 41.9954 41.3542 42.2733 41.3037C42.7785 41.1774 43.2712 41.0764 43.7511 41.0006C44.2059 40.8995 44.6858 40.7479 45.1911 40.5458C46.3784 40.0153 47.4142 39.2827 48.2983 38.348C49.2078 37.4133 50.0162 36.3776 50.7235 35.2408C51.4309 34.104 52.0371 32.9167 52.5424 31.6788C53.0729 30.441 53.5529 29.2536 53.9823 28.1168C54.3613 27.1063 54.7149 26.0832 55.0434 25.0475C55.397 24.0117 55.7381 22.9886 56.0665 21.9781C56.4201 20.9424 56.7864 19.9192 57.1654 18.9088C57.5696 17.8983 58.0243 16.913 58.5295 15.9531C57.8222 16.3825 57.1022 16.7741 56.3696 17.1278C55.637 17.4562 54.917 17.8351 54.2097 18.2646C53.1992 18.8709 52.1887 19.5908 51.1782 20.4245C50.193 21.2581 49.4478 22.2434 48.9425 23.3802C48.8162 23.6581 48.7278 23.9359 48.6773 24.2138C48.6268 24.4664 48.5636 24.7317 48.4878 25.0096C48.412 25.2622 48.2352 25.3885 47.9573 25.3885C47.8815 25.3885 47.7552 25.338 47.5784 25.2369C47.4268 25.1359 47.351 25.0348 47.351 24.9338C47.351 23.9991 47.5152 23.1275 47.8436 22.3192C48.172 21.5108 48.6141 20.7655 49.1699 20.0834C49.7257 19.3761 50.3572 18.7319 51.0646 18.1509C51.7719 17.5699 52.4919 17.052 53.2245 16.5973C54.4118 15.8647 55.6244 15.1573 56.8622 14.4752C58.1253 13.7932 59.4137 13.2248 60.7274 12.77H60.8031C61.0052 12.77 61.1821 12.8458 61.3336 12.9974C61.5105 13.149 61.5736 13.3258 61.5231 13.5279C62.2557 15.9783 62.8115 18.4414 63.1904 20.9171C63.5694 23.3928 63.9104 25.8938 64.2135 28.42C64.4156 30.1378 64.6177 31.8556 64.8198 33.5735C65.0219 35.266 65.1735 36.9839 65.2746 38.727C66.2093 36.4281 67.0555 34.1292 67.8134 31.8304C68.5965 29.5063 69.4302 27.1948 70.3144 24.8959C70.9712 23.2286 71.6785 21.6118 72.4364 20.0456C73.1943 18.454 74.1037 16.9509 75.1647 15.5362C75.7205 14.8289 76.3394 14.1721 77.0215 13.5658C77.7288 12.9342 78.4741 12.3911 79.2572 11.9364C80.0656 11.4564 80.9119 11.0901 81.796 10.8375C82.6802 10.5596 83.577 10.4207 84.4865 10.4207C84.6128 10.4207 84.7265 10.4838 84.8275 10.6101C84.9286 10.7364 84.9791 10.8627 84.9791 10.9891ZM92.0272 23.4938C92.0272 23.5949 92.0146 23.6707 91.9893 23.7212C91.0294 26.298 90.0063 28.8242 88.92 31.2999C87.8337 33.7503 86.8106 36.2639 85.8506 38.8406C85.3706 40.0785 84.9412 41.3163 84.5623 42.5542C84.2086 43.792 83.8549 45.0552 83.5012 46.3435C83.4255 46.6214 83.337 46.874 83.236 47.1014C83.1602 47.354 83.0718 47.6193 82.9707 47.8971C82.6676 48.8319 82.3518 49.7413 82.0234 50.6255C81.695 51.5349 81.3161 52.4191 80.8866 53.278C80.4571 54.1369 79.9645 54.9453 79.4088 55.7032C78.853 56.4863 78.2214 57.1558 77.5141 57.7115C76.8068 58.2926 76.0363 58.7473 75.2026 59.0757C74.3689 59.4294 73.4595 59.6062 72.4743 59.6062C71.4385 59.6062 70.4786 59.4167 69.5944 59.0378C68.685 58.6841 67.8513 58.1915 67.0934 57.5599C66.3356 56.9537 65.6661 56.221 65.0851 55.3621C64.4788 54.5285 63.9483 53.619 63.4936 52.6338C63.443 52.5328 63.4178 52.4443 63.4178 52.3686C63.3925 52.1665 63.4557 52.0149 63.6072 51.9138C63.7336 51.8381 63.8725 51.8002 64.0241 51.8002C64.1251 51.8002 64.2135 51.8381 64.2893 51.9138C64.3651 51.9896 64.4283 52.0654 64.4788 52.1412C64.6556 52.4191 64.8198 52.7096 64.9714 53.0127C65.0977 53.3412 65.2619 53.6443 65.464 53.9222C65.843 54.4527 66.285 54.9579 66.7903 55.4379C67.2703 55.9432 67.8134 56.3726 68.4197 56.7263C69.0007 57.1052 69.6197 57.3957 70.2765 57.5978C70.9333 57.8252 71.6027 57.9389 72.2848 57.9389C73.3206 57.9389 74.2805 57.6863 75.1647 57.181C76.4278 56.4231 77.4762 55.3748 78.3099 54.0359C79.1435 52.697 79.8635 51.2191 80.4698 49.6023C81.0508 48.0361 81.5434 46.4319 81.9476 44.7899C82.3771 43.1731 82.8065 41.6574 83.236 40.2427C82.9328 40.5206 82.5665 40.8237 82.1371 41.1521C81.7076 41.4805 81.2655 41.7837 80.8108 42.0616C80.3561 42.3647 79.8887 42.6173 79.4088 42.8194C78.954 43.0215 78.5372 43.1226 78.1583 43.1226C77.4257 43.1226 76.7562 42.8826 76.1499 42.4026C75.5689 41.9226 75.2026 41.2784 75.051 40.4701C74.9247 39.9648 74.8489 39.4975 74.8237 39.068C74.7731 38.2849 74.7984 37.4639 74.8995 36.6049C75.0258 35.7208 75.19 34.8492 75.3921 33.9903C75.6194 33.1061 75.8721 32.2598 76.1499 31.4514C76.4278 30.6178 76.7183 29.8599 77.0215 29.1778C77.653 27.7126 78.3351 26.2727 79.0677 24.858C79.2193 24.5801 79.3582 24.2896 79.4845 23.9865C79.6109 23.6833 79.7624 23.3928 79.9393 23.1149C80.0403 22.9633 80.1919 22.8876 80.394 22.8876C80.5203 22.8876 80.6592 22.9633 80.8108 23.1149C80.9624 23.2412 81.0508 23.3802 81.0761 23.5317L80.9624 24.1001C80.735 25.1612 80.4319 26.1969 80.0529 27.2074C79.6993 28.2179 79.3203 29.2031 78.9161 30.1631C78.6383 30.8452 78.3477 31.5651 78.0446 32.323C77.7667 33.0556 77.5141 33.8008 77.2867 34.5587C77.0846 35.3166 76.9204 36.0871 76.7941 36.8702C76.6678 37.6281 76.6299 38.3859 76.6804 39.1438C76.7057 39.3712 76.731 39.6111 76.7562 39.8638C76.8068 40.1164 76.8825 40.3564 76.9836 40.5837C77.0846 40.7858 77.2109 40.9627 77.3625 41.1142C77.5141 41.2406 77.7162 41.3037 77.9688 41.3037C78.3983 41.3037 78.9035 41.1648 79.4845 40.8869C80.0656 40.5837 80.6466 40.2427 81.2276 39.8638C81.8087 39.4596 82.3518 39.0427 82.8571 38.6133C83.3876 38.1838 83.817 37.8175 84.1454 37.5144C84.8022 35.6955 85.5096 33.9271 86.2675 32.2093C87.0253 30.4662 87.8463 28.761 88.7305 27.0937C89.0842 26.4369 89.4379 25.7674 89.7915 25.0854C90.1452 24.378 90.5241 23.7086 90.9283 23.077C91.0294 22.9002 91.181 22.8118 91.3831 22.8118C91.5599 22.8118 91.6988 22.8876 91.7999 23.0391C91.9262 23.1654 92.002 23.317 92.0272 23.4938ZM106.768 27.6621C106.768 28.6221 106.654 29.6705 106.427 30.8073C106.225 31.9441 105.909 33.0809 105.479 34.2177C105.05 35.3545 104.519 36.466 103.888 37.5523C103.282 38.6133 102.574 39.5606 101.766 40.3943C100.983 41.2279 100.099 41.8847 99.1133 42.3647C98.1533 42.87 97.1176 43.1226 96.006 43.1226C95.1724 43.1226 94.4524 42.8952 93.8461 42.4405C93.2398 42.0111 92.7219 41.4553 92.2925 40.7732C91.8883 40.0911 91.5851 39.3585 91.3831 38.5754C91.181 37.767 91.0799 37.0091 91.0799 36.3018C91.0799 35.4681 91.1936 34.6471 91.4209 33.8387C92.1283 31.5146 93.2651 29.4431 94.8313 27.6242C96.3976 25.8053 98.3049 24.4412 100.553 23.5317C100.604 23.5065 100.667 23.4938 100.743 23.4938C100.92 23.4938 101.046 23.557 101.122 23.6833C101.223 23.8096 101.273 23.9486 101.273 24.1001C101.273 24.277 101.172 24.4286 100.97 24.5549C100.616 24.757 100.263 24.9591 99.9091 25.1612C99.5554 25.338 99.2017 25.5653 98.848 25.8432C97.4586 26.8537 96.2713 28.1042 95.2861 29.5947C94.3008 31.0851 93.5556 32.6514 93.0504 34.2934C92.8735 34.824 92.7851 35.4176 92.7851 36.0744C92.7851 36.6049 92.8609 37.1733 93.0125 37.7796C93.164 38.3859 93.3914 38.9543 93.6945 39.4848C93.9977 39.9901 94.3766 40.4195 94.8313 40.7732C95.3113 41.1016 95.8671 41.2658 96.4987 41.2658C96.9028 41.2658 97.2818 41.19 97.6355 41.0385C98.0144 40.8869 98.3681 40.6974 98.6965 40.4701C99.6564 39.788 100.515 38.9038 101.273 37.8175C102.031 36.7312 102.675 35.5692 103.206 34.3313C103.736 33.0682 104.14 31.7925 104.418 30.5041C104.696 29.1905 104.835 27.9526 104.835 26.7906V26.3358C104.785 25.679 104.557 25.1233 104.153 24.6685C103.774 24.2138 103.294 23.8475 102.713 23.5696C102.536 23.4938 102.359 23.4307 102.183 23.3802C102.031 23.3296 101.88 23.2665 101.728 23.1907C101.475 23.0897 101.349 22.9128 101.349 22.6602C101.349 22.4834 101.4 22.3318 101.501 22.2055C101.602 22.0792 101.741 22.0286 101.917 22.0539H101.955C102.511 22.1044 103.054 22.2307 103.585 22.4328C104.14 22.6349 104.633 22.9128 105.063 23.2665C105.492 23.6202 105.846 24.037 106.124 24.517C106.427 24.997 106.616 25.5401 106.692 26.1464C106.742 26.399 106.768 26.6516 106.768 26.9042C106.768 27.1316 106.768 27.3842 106.768 27.6621ZM120.106 16.4836C120.106 16.5341 120.094 16.572 120.068 16.5973C120.068 16.6225 120.068 16.6478 120.068 16.673C119.285 18.4161 118.477 20.1466 117.643 21.8644C116.809 23.557 116.064 25.3127 115.407 27.1316C115.685 27.1316 115.951 27.1316 116.203 27.1316C116.456 27.1063 116.721 27.0937 116.999 27.0937C117.125 27.0937 117.264 27.0937 117.416 27.0937C117.593 27.0685 117.744 27.0811 117.87 27.1316C118.022 27.1569 118.148 27.22 118.249 27.3211C118.35 27.3969 118.401 27.5358 118.401 27.7379C118.401 27.9905 118.3 28.1547 118.098 28.2305C117.921 28.281 117.681 28.3442 117.378 28.42C117.1 28.4705 116.797 28.521 116.468 28.5716C116.165 28.6221 115.862 28.6726 115.559 28.7231C115.281 28.7484 115.041 28.7737 114.839 28.7989C114.612 29.4557 114.397 30.1883 114.195 30.9967C113.993 31.7799 113.816 32.6009 113.664 33.4598C113.513 34.2934 113.386 35.1271 113.285 35.9608C113.184 36.7691 113.134 37.5144 113.134 38.1965C113.134 38.3733 113.134 38.6512 113.134 39.0301C113.159 39.3838 113.197 39.7375 113.248 40.0911C113.323 40.4448 113.424 40.7606 113.551 41.0385C113.702 41.3163 113.904 41.4553 114.157 41.4553C114.511 41.4553 114.915 41.2784 115.37 40.9248C115.824 40.5711 116.266 40.1669 116.696 39.7122C117.151 39.2322 117.567 38.7649 117.946 38.3101C118.35 37.8302 118.679 37.4639 118.931 37.2112C119.033 37.1102 119.146 37.0597 119.273 37.0597C119.424 37.0597 119.563 37.1228 119.689 37.2491C119.841 37.3754 119.917 37.5144 119.917 37.666C119.917 37.7417 119.879 37.8302 119.803 37.9312C119.525 38.3354 119.159 38.8406 118.704 39.4469C118.275 40.028 117.795 40.5964 117.264 41.1521C116.759 41.6826 116.216 42.1374 115.635 42.5163C115.079 42.8952 114.536 43.0847 114.005 43.0847C113.424 43.0847 112.957 42.8826 112.603 42.4784C112.25 42.0742 111.972 41.5942 111.77 41.0385C111.593 40.4574 111.467 39.8638 111.391 39.2575C111.34 38.6259 111.315 38.0954 111.315 37.666C111.315 37.0597 111.353 36.3776 111.429 35.6197C111.53 34.8618 111.643 34.0913 111.77 33.3082C111.896 32.5251 112.048 31.7672 112.224 31.0346C112.401 30.2768 112.565 29.5947 112.717 28.9884C112.515 28.9884 112.313 29.001 112.111 29.0263C111.934 29.0263 111.744 29.0263 111.542 29.0263C111.012 29.0263 110.469 29.0136 109.913 28.9884C109.357 28.9631 108.814 28.9126 108.283 28.8368C107.753 28.7358 107.235 28.5842 106.73 28.3821C106.225 28.1547 105.77 27.8516 105.366 27.4726C105.265 27.3969 105.214 27.2832 105.214 27.1316C105.214 27.0811 105.29 26.9548 105.441 26.7527C105.593 26.5253 105.694 26.4116 105.745 26.4116C106.679 26.4116 107.601 26.5127 108.511 26.7148C109.42 26.9169 110.342 27.0432 111.277 27.0937C111.58 27.119 111.883 27.1316 112.186 27.1316C112.515 27.1316 112.843 27.1316 113.172 27.1316H113.285C113.563 26.2727 113.904 25.338 114.309 24.3275C114.713 23.317 115.167 22.3192 115.673 21.3339C116.178 20.3487 116.708 19.4014 117.264 18.4919C117.845 17.5572 118.439 16.7488 119.045 16.0668C119.197 15.9657 119.323 15.9152 119.424 15.9152C119.576 15.9152 119.727 15.9783 119.879 16.1046C120.03 16.2057 120.106 16.332 120.106 16.4836ZM137.386 35.3924C136.729 36.7312 136.047 37.9312 135.339 38.9922C134.632 40.028 133.71 41.0385 132.573 42.0237C132.017 42.5289 131.386 42.7816 130.678 42.7816C130.299 42.7816 129.933 42.6679 129.58 42.4405C129.251 42.2384 129.024 41.9479 128.897 41.569C128.847 41.4427 128.809 41.2658 128.784 41.0385C128.784 40.8111 128.771 40.5711 128.746 40.3185C128.746 40.0659 128.746 39.8259 128.746 39.5985C128.771 39.3459 128.784 39.1438 128.784 38.9922C127.9 40.0532 126.851 40.95 125.639 41.6826C124.451 42.4405 123.138 42.8194 121.698 42.8194C121.622 42.8194 121.508 42.7942 121.357 42.7437C121.23 42.6931 121.129 42.6552 121.054 42.63C120.472 42.3521 120.03 41.91 119.727 41.3037C119.449 40.6974 119.31 40.0911 119.31 39.4848C119.31 38.6512 119.411 37.8302 119.614 37.0218C119.841 36.1881 120.131 35.3924 120.485 34.6345C120.864 33.8514 121.294 33.1061 121.773 32.3988C122.253 31.6914 122.759 31.022 123.289 30.3904C124.653 28.6979 126.22 27.2327 127.988 25.9948C129.756 24.7317 131.676 23.7212 133.748 22.9633C133.773 22.9381 133.824 22.9254 133.899 22.9254C134.076 22.9254 134.203 22.9886 134.278 23.1149C134.379 23.2412 134.43 23.3802 134.43 23.5317C134.43 23.7591 134.341 23.9107 134.165 23.9865C133.735 24.2138 133.306 24.4286 132.876 24.6306C132.472 24.8075 132.068 25.0096 131.664 25.2369C128.86 26.8537 126.498 28.9252 124.578 31.4514C124.199 31.9567 123.807 32.5251 123.403 33.1566C122.999 33.7882 122.632 34.445 122.304 35.1271C121.976 35.7839 121.698 36.466 121.47 37.1733C121.268 37.8807 121.167 38.5628 121.167 39.2196C121.167 39.3206 121.18 39.4722 121.205 39.6743C121.23 39.8511 121.268 40.0406 121.319 40.2427C121.369 40.4195 121.445 40.5837 121.546 40.7353C121.672 40.8616 121.811 40.9248 121.963 40.9248C122.696 40.9248 123.403 40.7353 124.085 40.3564C124.792 39.9774 125.449 39.4975 126.055 38.9164C126.662 38.3354 127.205 37.7165 127.685 37.0597C128.165 36.4028 128.556 35.7839 128.86 35.2029C129.441 34.1419 129.958 33.0809 130.413 32.0198C130.868 30.9336 131.323 29.8473 131.777 28.761C131.954 28.3063 132.156 27.7758 132.384 27.1695C132.636 26.5632 132.876 26.0453 133.104 25.6159C133.205 25.439 133.369 25.3506 133.596 25.3506C133.773 25.3506 133.925 25.4011 134.051 25.5022C134.177 25.6032 134.24 25.7422 134.24 25.919L134.203 25.9948C134 26.9042 133.773 27.8263 133.52 28.761C133.268 29.6705 132.99 30.5673 132.687 31.4514C132.56 31.8051 132.409 32.1967 132.232 32.6261C132.055 33.0556 131.916 33.4219 131.815 33.725C131.765 33.9019 131.727 34.0787 131.702 34.2556C131.702 34.4324 131.689 34.6092 131.664 34.7861C131.588 35.1903 131.499 35.5944 131.398 35.9986C131.323 36.3776 131.234 36.7691 131.133 37.1733C131.007 37.6786 130.893 38.1965 130.792 38.727C130.716 39.2322 130.678 39.7501 130.678 40.2806C130.678 40.4069 130.678 40.5206 130.678 40.6216C130.678 40.7227 130.691 40.8237 130.716 40.9248C130.893 40.9248 131.095 40.849 131.323 40.6974C131.575 40.5458 131.828 40.369 132.08 40.1669C132.333 39.9396 132.56 39.7122 132.763 39.4848C132.99 39.2575 133.167 39.0806 133.293 38.9543C134.051 38.1459 134.771 37.2491 135.453 36.2639C135.63 36.0618 135.781 35.8471 135.908 35.6197C136.059 35.3671 136.223 35.1397 136.4 34.9376C136.476 34.8113 136.59 34.7482 136.741 34.7482C136.918 34.7482 137.07 34.8113 137.196 34.9376C137.322 35.0639 137.386 35.2155 137.386 35.3924Z" fill="#DDCEB8"/>
<path d="M34.4005 12.3748C24.4575 18.7043 29.8641 30.9757 32.8677 35.7734C29.7342 29.2649 26.0541 22.8255 34.0898 15.2253C34.1112 15.205 34.1476 15.2088 34.1645 15.233C41.7446 26.0489 35.5416 32.6025 33.2563 35.441C33.2187 35.4877 33.2721 35.5241 33.3131 35.4804C42.0824 26.1185 38.2529 15.9132 34.4594 12.3791C34.4433 12.3641 34.4191 12.363 34.4005 12.3748Z" fill="#DDCEB8" stroke="#DDCEB8" stroke-width="0.485035"/>
<path d="M33.1511 35.9355C38.708 32.0799 46.4861 21.1351 33.1811 8.18316C33.1642 8.16676 33.1381 8.16341 33.1191 8.17719C28.3977 11.594 20.9416 20.9996 28.6511 31.4954M33.1511 35.9355C32.0458 34.4844 30.5098 32.8901 28.6511 31.4954M33.1511 35.9355C20.2664 49.0534 8.64305 41.1451 4.4169 35.5244C4.40342 35.5065 4.40515 35.4818 4.41949 35.4645C13.4456 24.6103 22.7017 27.0311 28.6511 31.4954M33.1511 35.9355C36.7366 41.5947 43.6823 44.3814 50.4728 37.0136" stroke="#DDCEB8" stroke-width="1.4551"/>
<path d="M26.4648 29.7859C21.8951 23.7552 12.3547 16.0345 2.91758 17.7631C0.178946 18.331 0.548845 21.9115 3.06986 21.6366C4.22704 21.5104 4.51802 20.6563 4.51459 20.1713" stroke="#DDCEB8" stroke-width="1.4551"/>
<path d="M26.4648 29.7859C21.8951 23.7552 12.3547 16.0345 2.91758 17.7631C0.178946 18.331 0.548845 21.9115 3.06986 21.6366C4.22704 21.5104 4.51802 20.6563 4.51459 20.1713" stroke="#DDCEB8" stroke-width="1.4551"/>
<path d="M26.339 28.459C21.1177 22.9826 14.5821 10.3367 17.2497 4.06114C18.8143 -0.334057 22.7156 1.61658 22.0406 4.06106C21.7308 5.18311 20.8411 5.33357 20.3628 5.25253" stroke="#DDCEB8" stroke-width="1.4551"/>
<path d="M26.339 28.459C21.1177 22.9826 14.5821 10.3367 17.2497 4.06114C18.8143 -0.334057 22.7156 1.61658 22.0406 4.06106C21.7308 5.18311 20.8411 5.33357 20.3628 5.25253" stroke="#DDCEB8" stroke-width="1.4551"/>
</svg>
