<svg width="123" height="75" viewBox="0 0 123 75" fill="none" xmlns="http://www.w3.org/2000/svg">
<path d="M61.125 40.861V52.4565" stroke="#274143" stroke-width="1.06431"/>
<path d="M61.125 19.8789V31.4744" stroke="#274143" stroke-width="1.06431"/>
<path d="M56.4336 36.1677L44.8381 36.1677" stroke="#274143" stroke-width="1.06431"/>
<path d="M77.416 36.1677L65.8205 36.1677" stroke="#274143" stroke-width="1.06431"/>
<path fill-rule="evenodd" clip-rule="evenodd" d="M78.7969 36.4435L78.4394 36.0992C75.1602 32.9404 72.3418 31.9189 70.0963 32.0354C67.8554 32.1517 66.2995 33.3967 65.5479 34.5346L66.4693 35.1433C67.0563 34.2547 68.3116 33.2339 70.1535 33.1383C71.8962 33.0479 74.2675 33.7815 77.1919 36.4435L78.7969 36.4435Z" fill="#274143"/>
<path fill-rule="evenodd" clip-rule="evenodd" d="M78.7969 36.4435L78.4391 36.7881C75.16 39.947 72.3415 40.9684 70.096 40.8519C67.8551 40.7356 66.2993 39.4906 65.5476 38.3528L66.469 37.7441C67.056 38.6326 68.3113 39.6535 70.1532 39.749C71.896 39.8395 74.2674 39.1057 77.1919 36.4435L78.7969 36.4435Z" fill="#274143"/>
<path fill-rule="evenodd" clip-rule="evenodd" d="M43.459 36.4426L43.8165 36.0982C47.0956 32.9394 49.9141 31.9179 52.1596 32.0345C54.4005 32.1507 55.9563 33.3957 56.708 34.5336L55.7866 35.1423C55.1996 34.2537 53.9443 33.2329 52.1024 33.1373C50.3596 33.0469 47.9884 33.7806 45.064 36.4426L43.459 36.4426Z" fill="#274143"/>
<path fill-rule="evenodd" clip-rule="evenodd" d="M43.459 36.4416L43.8169 36.7863C47.096 39.9451 49.9145 40.9666 52.16 40.8501C54.4009 40.7338 55.9567 39.4888 56.7084 38.3509L55.7869 37.7422C55.2 38.6308 53.9447 39.6516 52.1027 39.7472C50.3599 39.8376 47.9885 39.1039 45.064 36.4416L43.459 36.4416Z" fill="#274143"/>
<path fill-rule="evenodd" clip-rule="evenodd" d="M61.1285 54.1093L61.4723 53.7523C64.6312 50.4731 65.6526 47.6546 65.5361 45.4092C65.4198 43.1683 64.1748 41.6124 63.037 40.8607L62.4283 41.7822C63.3168 42.3691 64.3377 43.6244 64.4333 45.4664C64.5237 47.209 63.7901 49.5801 61.1285 52.5042L61.1285 54.1093Z" fill="#274143"/>
<path fill-rule="evenodd" clip-rule="evenodd" d="M61.1157 54.1095L60.7718 53.7525C57.613 50.4734 56.5915 47.6549 56.708 45.4094C56.8243 43.1685 58.0693 41.6127 59.2072 40.861L59.8159 41.7824C58.9273 42.3694 57.9065 43.6247 57.8109 45.4666C57.7205 47.2092 58.4541 49.5803 61.1157 52.5045L61.1157 54.1095Z" fill="#274143"/>
<path fill-rule="evenodd" clip-rule="evenodd" d="M61.1285 18.7761L61.4723 19.1331C64.6312 22.4123 65.6526 25.2307 65.5361 27.4762C65.4198 29.7171 64.1748 31.273 63.037 32.0246L62.4283 31.1032C63.3168 30.5162 64.3377 29.261 64.4333 27.419C64.5237 25.6764 63.7901 23.3053 61.1285 20.3812V18.7761Z" fill="#274143"/>
<path fill-rule="evenodd" clip-rule="evenodd" d="M61.1137 18.7759L60.7698 19.1329C57.611 22.412 56.5896 25.2305 56.7061 27.476C56.8224 29.7169 58.0674 31.2727 59.2052 32.0244L59.8139 31.103C58.9254 30.516 57.9045 29.2607 57.8089 27.4188C57.7185 25.6761 58.4521 23.305 61.1137 20.3809V18.7759Z" fill="#274143"/>
<circle cx="61.1291" cy="36.444" r="4.98952" stroke="#274143" stroke-width="1.06431"/>
<path d="M61.1133 0.55249V12.148" stroke="#274143" stroke-width="1.06431"/>
<path fill-rule="evenodd" clip-rule="evenodd" d="M61.1168 0.00303708L61.1217 0L61.4148 0.188588C68.4378 4.70634 71.9345 9.54176 73.4292 13.8664C74.9219 18.185 74.402 21.9492 73.4663 24.2966L72.4404 23.8877C73.2843 21.7705 73.7862 18.2797 72.3855 14.2272C71.0074 10.24 67.7718 5.6651 61.1168 1.31157V0.00303708Z" fill="#274143"/>
<path fill-rule="evenodd" clip-rule="evenodd" d="M61.1137 0.00328122L61.1088 0.000244141L60.8156 0.188832C53.7927 4.70658 50.296 9.54201 48.8013 13.8666C47.3086 18.1853 47.8285 21.9494 48.7642 24.2968L49.79 23.8879C48.9461 21.7707 48.4443 18.2799 49.845 14.2274C51.2231 10.2402 54.4586 5.66535 61.1137 1.31181V0.00328122Z" fill="#274143"/>
<path d="M61.1133 60.7385V72.334" stroke="#274143" stroke-width="1.06431"/>
<path fill-rule="evenodd" clip-rule="evenodd" d="M61.1168 72.8844L61.1217 72.8875L61.4148 72.6989C68.4378 68.1811 71.9345 63.3457 73.4292 59.0211C74.9219 54.7024 74.402 50.9383 73.4663 48.5909L72.4404 48.9998C73.2843 51.117 73.7862 54.6078 72.3855 58.6603C71.0074 62.6475 67.7718 67.2223 61.1168 71.5759V72.8844Z" fill="#274143"/>
<path fill-rule="evenodd" clip-rule="evenodd" d="M61.1137 72.8844L61.1088 72.8875L60.8156 72.6989C53.7927 68.1811 50.296 63.3457 48.8013 59.0211C47.3086 54.7024 47.8285 50.9383 48.7642 48.5909L49.79 48.9998C48.9461 51.117 48.4443 54.6078 49.845 58.6603C51.2231 62.6475 54.4586 67.2223 61.1137 71.5759V72.8844Z" fill="#274143"/>
<path d="M97.0156 36.4431L85.4201 36.4431" stroke="#274143" stroke-width="1.06431"/>
<path fill-rule="evenodd" clip-rule="evenodd" d="M97.5649 36.4461L97.5684 36.4516L97.3798 36.7448C92.862 43.7678 88.0266 47.2644 83.702 48.7592C79.3834 50.2518 75.6192 49.7319 73.2718 48.7962L73.6807 47.7704C75.7979 48.6143 79.2887 49.1161 83.3412 47.7154C87.3285 46.3373 91.9035 43.1016 96.2572 36.4461L97.5649 36.4461Z" fill="#274143"/>
<path fill-rule="evenodd" clip-rule="evenodd" d="M97.5649 36.4434L97.5684 36.4379L97.3798 36.1447C92.862 29.1218 88.0266 25.6251 83.702 24.1304C79.3834 22.6377 75.6192 23.1576 73.2718 24.0933L73.6807 25.1191C75.7979 24.2752 79.2887 23.7734 83.3412 25.1741C87.3285 26.5522 91.9035 29.7879 96.2572 36.4434L97.5649 36.4434Z" fill="#274143"/>
<path d="M36.8301 36.4424L25.2346 36.4424" stroke="#274143" stroke-width="1.06431"/>
<path fill-rule="evenodd" clip-rule="evenodd" d="M24.6851 36.4455L24.6816 36.451L24.8702 36.7442C29.388 43.7672 34.2234 47.2638 38.548 48.7586C42.8666 50.2512 46.6308 49.7313 48.9782 48.7956L48.5693 47.7698C46.4521 48.6137 42.9613 49.1155 38.9088 47.7148C34.9215 46.3367 30.3465 43.101 25.9928 36.4455L24.6851 36.4455Z" fill="#274143"/>
<path fill-rule="evenodd" clip-rule="evenodd" d="M24.6852 36.4428L24.6816 36.437L24.8702 36.1439C29.388 29.1209 34.2234 25.6242 38.548 24.1295C42.8666 22.6368 46.6308 23.1568 48.9782 24.0924L48.5693 25.1183C46.4521 24.2744 42.9613 23.7726 38.9088 25.1732C34.9215 26.5514 30.3464 29.7872 25.9926 36.4428L24.6852 36.4428Z" fill="#274143"/>
<rect x="61.1289" y="11.7957" width="34.8564" height="34.8564" transform="rotate(45 61.1289 11.7957)" stroke="#274143" stroke-width="1.06431"/>
<path fill-rule="evenodd" clip-rule="evenodd" d="M48.9746 18.8658C46.201 19.3322 44.0122 21.5217 43.5469 24.2956H44.67C45.109 22.1328 46.8122 20.429 48.9746 19.9891V18.8658Z" fill="#274143"/>
<path fill-rule="evenodd" clip-rule="evenodd" d="M73.2715 18.8658C76.045 19.3321 78.2337 21.5215 78.6992 24.2952H77.576C77.1369 22.1326 75.4338 20.429 73.2715 19.9891V18.8658Z" fill="#274143"/>
<path fill-rule="evenodd" clip-rule="evenodd" d="M48.9746 54.0201C46.201 53.5538 44.0122 51.3643 43.5469 48.5904H44.67C45.109 50.7532 46.8122 52.457 48.9746 52.8969V54.0201Z" fill="#274143"/>
<path fill-rule="evenodd" clip-rule="evenodd" d="M73.2715 54.0201C76.045 53.5538 78.2337 51.3645 78.6992 48.5907H77.576C77.1369 50.7534 75.4338 52.457 73.2715 52.8969V54.0201Z" fill="#274143"/>
<path d="M23.5523 62.9469L34.5957 73.9903H6.98731C4.99131 73.8059 0.999319 72.2131 0.999319 67.3173" stroke="#274143" stroke-width="1.06431"/>
<circle cx="5.52168" cy="5.52168" r="4.98952" transform="matrix(-1 0 0 1 25.7598 54.1121)" stroke="#274143" stroke-width="1.06431"/>
<circle cx="2.20867" cy="2.20867" r="1.67652" transform="matrix(-1 0 0 1 22.4453 57.4254)" stroke="#274143" stroke-width="1.06431"/>
<path fill-rule="evenodd" clip-rule="evenodd" d="M18.0291 55.2166C18.0291 53.9968 19.018 53.008 20.2378 53.008C21.4576 53.008 22.4464 53.9968 22.4464 55.2166H23.5508C23.5507 53.3869 22.0675 51.9037 20.2378 51.9037C18.4081 51.9037 16.9248 53.3869 16.9248 55.2166H18.0291Z" fill="#274143"/>
<path fill-rule="evenodd" clip-rule="evenodd" d="M22.4455 64.0514C22.4455 65.2712 21.4566 66.26 20.2368 66.26C19.017 66.26 18.0282 65.2712 18.0282 64.0514H16.9238C16.9238 65.8811 18.4071 67.3644 20.2368 67.3644C22.0666 67.3644 23.5498 65.8811 23.5498 64.0514H22.4455Z" fill="#274143"/>
<path fill-rule="evenodd" clip-rule="evenodd" d="M15.8203 61.8425C15.8198 61.8425 15.8193 61.8425 15.8189 61.8425C14.5991 61.8425 13.6102 60.8536 13.6102 59.6338C13.6102 58.414 14.5991 57.4251 15.8189 57.4251C15.8193 57.4251 15.8198 57.4251 15.8203 57.4251L15.8203 56.3208C15.8198 56.3208 15.8193 56.3208 15.8189 56.3208C13.9891 56.3208 12.5059 57.8041 12.5059 59.6338C12.5059 61.4635 13.9891 62.9468 15.8189 62.9468C15.8193 62.9468 15.8198 62.9468 15.8203 62.9468L15.8203 61.8425Z" fill="#274143"/>
<path fill-rule="evenodd" clip-rule="evenodd" d="M24.6545 57.4251C24.6549 57.4251 24.6553 57.4251 24.6557 57.4251C25.8756 57.4251 26.8644 58.414 26.8644 59.6338C26.8644 60.8536 25.8756 61.8424 24.6557 61.8424C24.6553 61.8424 24.6549 61.8424 24.6545 61.8424L24.6545 62.9468C24.6549 62.9468 24.6553 62.9468 24.6557 62.9468C26.4855 62.9468 27.9687 61.4635 27.9687 59.6338C27.9687 57.804 26.4855 56.3208 24.6557 56.3208C24.6553 56.3208 24.6549 56.3208 24.6545 56.3208L24.6545 57.4251Z" fill="#274143"/>
<path d="M15.8242 56.321C14.1677 50.7993 9.75037 45.2776 2.9575 43.069C2.49798 44.8997 0.363519 61.2905 15.8242 62.3948" stroke="#274143" stroke-width="1.06431"/>
<path fill-rule="evenodd" clip-rule="evenodd" d="M13.6152 51.1283C13.1761 52.0309 12.2502 52.653 11.1789 52.653C9.68352 52.653 8.47124 51.4408 8.47124 49.9454C8.47124 48.8555 9.11518 47.916 10.0434 47.4866L10.9052 48.3653C10.1501 48.4952 9.57558 49.1532 9.57558 49.9454C9.57558 50.8309 10.2934 51.5487 11.1789 51.5487C11.9604 51.5487 12.6113 50.9896 12.7534 50.2497L13.6152 51.1283Z" fill="#274143"/>
<path fill-rule="evenodd" clip-rule="evenodd" d="M5.06059 56.7364C5.56496 55.869 6.53384 55.317 7.60186 55.3957C9.09324 55.5055 10.2132 56.8036 10.1033 58.295C10.0232 59.3816 9.3124 60.271 8.35563 60.6313L7.56088 59.6918C8.323 59.6173 8.94375 59.0035 9.00193 58.2138C9.067 57.3307 8.40383 56.5621 7.52072 56.497C6.74175 56.4396 6.05183 56.9488 5.85529 57.6758L5.06059 56.7364Z" fill="#274143"/>
<path d="M99.8344 62.9469L88.791 73.9903H116.399C118.395 73.8059 122.387 72.2131 122.387 67.3173" stroke="#274143" stroke-width="1.06431"/>
<circle cx="103.149" cy="59.6337" r="4.98952" stroke="#274143" stroke-width="1.06431"/>
<circle cx="103.15" cy="59.6341" r="1.67652" stroke="#274143" stroke-width="1.06431"/>
<path fill-rule="evenodd" clip-rule="evenodd" d="M105.358 55.2166C105.358 53.9968 104.369 53.008 103.149 53.008C101.929 53.008 100.94 53.9968 100.94 55.2166H99.8359C99.836 53.3869 101.319 51.9037 103.149 51.9037C104.979 51.9037 106.462 53.3869 106.462 55.2166H105.358Z" fill="#274143"/>
<path fill-rule="evenodd" clip-rule="evenodd" d="M100.941 64.0514C100.941 65.2712 101.93 66.26 103.15 66.26C104.37 66.26 105.359 65.2712 105.359 64.0514H106.463C106.463 65.8811 104.98 67.3644 103.15 67.3644C101.32 67.3644 99.8369 65.8811 99.8369 64.0514H100.941Z" fill="#274143"/>
<path fill-rule="evenodd" clip-rule="evenodd" d="M107.566 61.8425C107.567 61.8425 107.567 61.8425 107.568 61.8425C108.788 61.8425 109.777 60.8536 109.777 59.6338C109.777 58.414 108.788 57.4251 107.568 57.4251C107.567 57.4251 107.567 57.4251 107.566 57.4251L107.566 56.3208C107.567 56.3208 107.567 56.3208 107.568 56.3208C109.398 56.3208 110.881 57.8041 110.881 59.6338C110.881 61.4635 109.398 62.9468 107.568 62.9468C107.567 62.9468 107.567 62.9468 107.566 62.9468L107.566 61.8425Z" fill="#274143"/>
<path fill-rule="evenodd" clip-rule="evenodd" d="M98.7294 57.4251C97.5103 57.4259 96.5223 58.4145 96.5223 59.6338C96.5223 60.8531 97.5103 61.8416 98.7294 61.8424L98.7294 62.9468C96.9004 62.9459 95.418 61.463 95.418 59.6338C95.418 57.8046 96.9004 56.3216 98.7294 56.3208L98.7294 57.4251Z" fill="#274143"/>
<path d="M107.562 56.321C109.219 50.7993 113.636 45.2776 120.429 43.069C120.889 44.8997 123.023 61.2905 107.562 62.3948" stroke="#274143" stroke-width="1.06431"/>
<path fill-rule="evenodd" clip-rule="evenodd" d="M109.771 51.1263C110.21 52.03 111.137 52.653 112.209 52.653C113.704 52.653 114.916 51.4407 114.916 49.9453C114.916 48.8546 114.272 47.9146 113.342 47.4856L112.48 48.3648C113.236 48.4937 113.812 49.1522 113.812 49.9453C113.812 50.8308 113.094 51.5486 112.209 51.5486C111.426 51.5486 110.775 50.9884 110.634 50.2472L109.771 51.1263Z" fill="#274143"/>
<path fill-rule="evenodd" clip-rule="evenodd" d="M118.326 56.7388C117.822 55.8701 116.853 55.3172 115.784 55.3959C114.292 55.5058 113.172 56.8039 113.282 58.2953C113.362 59.3827 114.074 60.2727 115.032 60.6324L115.827 59.6924C115.064 59.6191 114.442 59.0047 114.384 58.2141C114.319 57.331 114.982 56.5623 115.865 56.4973C116.645 56.4398 117.335 56.9503 117.531 57.6788L118.326 56.7388Z" fill="#274143"/>
<path d="M37.2042 56.3214C49.1311 62.064 54.3214 70.4937 55.4258 73.9908H41.6216C36.3208 69.1317 36.468 60.1866 37.2042 56.3214Z" stroke="#274143" stroke-width="1.06431"/>
<path fill-rule="evenodd" clip-rule="evenodd" d="M38.1058 67.6057C39.2827 67.4854 40.2008 66.4912 40.2008 65.2826C40.2008 63.9929 39.1552 62.9474 37.8655 62.9474C37.4937 62.9474 37.1421 63.0343 36.8301 63.1889L37.1463 64.2836C37.3486 64.1377 37.597 64.0517 37.8655 64.0517C38.5453 64.0517 39.0964 64.6028 39.0964 65.2826C39.0964 65.9624 38.5453 66.5135 37.8655 66.5135C37.8401 66.5135 37.8148 66.5128 37.7897 66.5112L38.1058 67.6057Z" fill="#274143"/>
<path fill-rule="evenodd" clip-rule="evenodd" d="M49.4969 65.7636C48.1926 66.3955 47.6205 67.9551 48.2194 69.2851C48.8288 70.6386 50.42 71.2417 51.7735 70.6323C52.2288 70.4273 52.5992 70.1112 52.8671 69.7304L53.5988 70.5916C53.2399 71.0285 52.7774 71.3914 52.2269 71.6393C50.3173 72.4991 48.0722 71.6481 47.2124 69.7385C46.4067 67.9492 47.1033 65.8652 48.7653 64.9025L49.4969 65.7636Z" fill="#274143"/>
<path d="M85.9715 56.321C74.0447 62.0636 68.8543 70.4934 67.75 73.9904H81.5542C86.855 69.1313 86.7078 60.1862 85.9715 56.321Z" stroke="#274143" stroke-width="1.06431"/>
<path fill-rule="evenodd" clip-rule="evenodd" d="M84.0793 65.2823C84.0793 65.9621 84.6304 66.5132 85.3102 66.5132C85.3357 66.5132 85.361 66.5124 85.3861 66.5109L85.07 67.6053C83.8931 67.485 82.9749 66.4909 82.9749 65.2823C82.9749 63.9925 84.0204 62.947 85.3102 62.947C85.682 62.947 86.0336 63.034 86.3457 63.1886L86.0295 64.2833C85.8272 64.1374 85.5787 64.0514 85.3102 64.0514C84.6304 64.0514 84.0793 64.6025 84.0793 65.2823Z" fill="#274143"/>
<path fill-rule="evenodd" clip-rule="evenodd" d="M74.4084 64.9014C76.0718 65.8636 76.7692 67.9484 75.9632 69.7385C75.1034 71.6481 72.8583 72.4991 70.9487 71.6393C70.3976 71.3911 69.9346 71.0275 69.5754 70.5898L70.3072 69.7285C70.5752 70.1101 70.9461 70.4269 71.4021 70.6323C72.7556 71.2417 74.3468 70.6385 74.9562 69.2851C75.5554 67.9544 74.9824 66.3939 73.6767 65.7626L74.4084 64.9014Z" fill="#274143"/>
</svg>
