<svg width="44" height="65" viewBox="0 0 44 65" fill="none" xmlns="http://www.w3.org/2000/svg">
<path d="M23.5523 20.8779L34.5957 31.9213H6.98731C4.99131 31.7369 0.999319 30.1441 0.999319 25.2483" stroke="#274143" stroke-width="1.06431"/>
<circle cx="5.52168" cy="5.52168" r="4.98952" transform="matrix(-1 0 0 1 25.7598 12.0432)" stroke="#274143" stroke-width="1.06431"/>
<circle cx="2.20867" cy="2.20867" r="1.67652" transform="matrix(-1 0 0 1 22.4453 15.3565)" stroke="#274143" stroke-width="1.06431"/>
<path fill-rule="evenodd" clip-rule="evenodd" d="M18.0291 13.1477C18.0291 11.9279 19.018 10.9391 20.2378 10.9391C21.4576 10.9391 22.4464 11.9279 22.4464 13.1477H23.5508C23.5507 11.318 22.0675 9.83473 20.2378 9.83473C18.4081 9.83473 16.9248 11.318 16.9248 13.1477H18.0291Z" fill="#274143"/>
<path fill-rule="evenodd" clip-rule="evenodd" d="M22.4455 21.9824C22.4455 21.9824 22.4455 21.9824 22.4455 21.9824C22.4455 23.2022 21.4567 24.1911 20.2368 24.1911C19.017 24.1911 18.0282 23.2022 18.0282 21.9824C18.0282 21.9824 18.0282 21.9824 18.0282 21.9824H16.9238C16.9238 21.9824 16.9238 21.9824 16.9238 21.9824C16.9238 23.8121 18.4071 25.2954 20.2368 25.2954C22.0666 25.2954 23.5498 23.8121 23.5498 21.9824C23.5498 21.9824 23.5498 21.9824 23.5498 21.9824H22.4455Z" fill="#274143"/>
<path fill-rule="evenodd" clip-rule="evenodd" d="M15.8203 19.7736C15.8198 19.7736 15.8193 19.7736 15.8189 19.7736C14.5991 19.7736 13.6102 18.7847 13.6102 17.5649C13.6102 16.3451 14.5991 15.3562 15.8189 15.3562C15.8193 15.3562 15.8198 15.3562 15.8203 15.3562L15.8203 14.2519C15.8198 14.2519 15.8193 14.2519 15.8189 14.2519C13.9891 14.2519 12.5059 15.7352 12.5059 17.5649C12.5059 19.3946 13.9891 20.8779 15.8189 20.8779C15.8193 20.8779 15.8198 20.8779 15.8203 20.8779L15.8203 19.7736Z" fill="#274143"/>
<path fill-rule="evenodd" clip-rule="evenodd" d="M24.6573 15.3562C25.8764 15.357 26.8644 16.3456 26.8644 17.5649C26.8644 18.7842 25.8764 19.7727 24.6573 19.7735L24.6573 20.8779C26.4863 20.877 27.9687 19.3941 27.9687 17.5649C27.9687 15.7357 26.4863 14.2527 24.6573 14.2519L24.6573 15.3562Z" fill="#274143"/>
<path d="M15.8242 14.252C14.1677 8.73035 9.75037 3.20867 2.9575 1C2.49798 2.83072 0.363519 19.2215 15.8242 20.3259" stroke="#274143" stroke-width="1.06431"/>
<path fill-rule="evenodd" clip-rule="evenodd" d="M13.6152 9.05738C13.1765 9.96106 12.25 10.584 11.178 10.584C9.68258 10.584 8.47031 9.37177 8.47031 7.87635C8.47031 6.78569 9.11515 5.84565 10.0444 5.41667L10.9067 6.29585C10.1504 6.42475 9.57464 7.08332 9.57464 7.87635C9.57464 8.76186 10.2925 9.47971 11.178 9.47971C11.9603 9.47971 12.6118 8.91943 12.753 8.17825L13.6152 9.05738Z" fill="#274143"/>
<path fill-rule="evenodd" clip-rule="evenodd" d="M5.06051 14.6698C5.56453 13.8012 6.53412 13.2482 7.603 13.3269C9.09437 13.4368 10.2143 14.7349 10.1044 16.2263C10.0243 17.3138 9.31241 18.2037 8.35449 18.5634L7.55925 17.6234C8.32263 17.5501 8.94481 16.9358 9.00306 16.1451C9.06813 15.262 8.40497 14.4934 7.52185 14.4283C6.74192 14.3708 6.05127 14.8814 5.8557 15.6098L5.06051 14.6698Z" fill="#274143"/>
<path d="M23.5523 44.0435L34.5957 33.0001H6.98731C4.99131 33.1845 0.999319 34.7773 0.999319 39.6731" stroke="#274143" stroke-width="1.06431"/>
<circle cx="20.2381" cy="47.3566" r="4.98952" transform="rotate(-180 20.2381 47.3566)" stroke="#274143" stroke-width="1.06431"/>
<circle cx="20.2366" cy="47.3562" r="1.67652" transform="rotate(-180 20.2366 47.3562)" stroke="#274143" stroke-width="1.06431"/>
<path fill-rule="evenodd" clip-rule="evenodd" d="M18.0291 51.7737C18.0291 52.9935 19.018 53.9823 20.2378 53.9823C21.4576 53.9823 22.4464 52.9935 22.4464 51.7737H23.5508C23.5507 53.6034 22.0675 55.0867 20.2378 55.0867C18.4081 55.0867 16.9248 53.6034 16.9248 51.7737H18.0291Z" fill="#274143"/>
<path fill-rule="evenodd" clip-rule="evenodd" d="M22.4455 42.939C22.4455 42.939 22.4455 42.939 22.4455 42.939C22.4455 41.7192 21.4567 40.7303 20.2368 40.7303C19.017 40.7303 18.0282 41.7192 18.0282 42.939C18.0282 42.939 18.0282 42.939 18.0282 42.939H16.9238C16.9238 42.939 16.9238 42.939 16.9238 42.939C16.9238 41.1093 18.4071 39.626 20.2368 39.626C22.0666 39.626 23.5498 41.1093 23.5498 42.939C23.5498 42.939 23.5498 42.939 23.5498 42.939H22.4455Z" fill="#274143"/>
<path fill-rule="evenodd" clip-rule="evenodd" d="M15.8203 45.1478C15.8198 45.1478 15.8193 45.1478 15.8189 45.1478C14.5991 45.1478 13.6102 46.1367 13.6102 47.3565C13.6102 48.5763 14.5991 49.5651 15.8189 49.5651C15.8193 49.5651 15.8198 49.5651 15.8203 49.5651L15.8203 50.6695C15.8198 50.6695 15.8193 50.6695 15.8189 50.6695C13.9891 50.6695 12.5059 49.1862 12.5059 47.3565C12.5059 45.5267 13.9891 44.0435 15.8189 44.0435C15.8193 44.0435 15.8198 44.0435 15.8203 44.0435L15.8203 45.1478Z" fill="#274143"/>
<path fill-rule="evenodd" clip-rule="evenodd" d="M24.6573 49.5652C25.8764 49.5644 26.8644 48.5758 26.8644 47.3565C26.8644 46.1372 25.8764 45.1487 24.6573 45.1479L24.6573 44.0435C26.4863 44.0444 27.9687 45.5273 27.9687 47.3565C27.9687 49.1857 26.4863 50.6687 24.6573 50.6695L24.6573 49.5652Z" fill="#274143"/>
<path d="M15.8242 50.6694C14.1677 56.191 9.75037 61.7127 2.9575 63.9214C2.49798 62.0907 0.363519 45.6998 15.8242 44.5955" stroke="#274143" stroke-width="1.06431"/>
<path fill-rule="evenodd" clip-rule="evenodd" d="M13.6152 55.864C13.1765 54.9603 12.25 54.3373 11.178 54.3373C9.68258 54.3373 8.47031 55.5496 8.47031 57.045C8.47031 58.1357 9.11515 59.0757 10.0444 59.5047L10.9067 58.6255C10.1504 58.4966 9.57464 57.8381 9.57464 57.045C9.57464 56.1595 10.2925 55.4417 11.178 55.4417C11.9603 55.4417 12.6118 56.002 12.753 56.7431L13.6152 55.864Z" fill="#274143"/>
<path fill-rule="evenodd" clip-rule="evenodd" d="M5.06051 50.2516C5.56453 51.1202 6.53412 51.6732 7.603 51.5944C9.09437 51.4846 10.2143 50.1865 10.1044 48.6951C10.0243 47.6076 9.31241 46.7177 8.35449 46.358L7.55925 47.298C8.32263 47.3713 8.94481 47.9856 9.00306 48.7763C9.06813 49.6594 8.40497 50.428 7.52185 50.4931C6.74192 50.5506 6.05127 50.04 5.8557 49.3116L5.06051 50.2516Z" fill="#274143"/>
<circle cx="41.5" cy="32.5" r="2.5" fill="#274143"/>
</svg>
